<?xml version="1.0" standalone="no"?>
<!DOCTYPE svg PUBLIC "-//W3C//DTD SVG 20010904//EN"
 "http://www.w3.org/TR/2001/REC-SVG-20010904/DTD/svg10.dtd">
<svg version="1.0" xmlns="http://www.w3.org/2000/svg"
 width="2400.000000pt" height="900.000000pt" viewBox="0 0 2400.000000 900.000000"
 preserveAspectRatio="xMidYMid meet">

<g transform="translate(0.000000,900.000000) scale(0.100000,-0.100000)"
fill="#000000" stroke="none">
<path d="M15960 6939 c-330 -41 -567 -144 -751 -328 -200 -200 -309 -472 -366
-913 -16 -118 -18 -238 -18 -1098 0 -730 3 -995 13 -1090 61 -574 225 -904
542 -1090 202 -118 437 -175 765 -187 362 -12 662 49 887 183 117 69 275 229
345 348 149 253 223 610 223 1079 l0 147 -365 0 -365 0 0 -243 c0 -260 -9
-369 -40 -485 -83 -306 -327 -477 -655 -459 -303 17 -522 199 -602 502 -17 66
-18 136 -18 1275 l0 1205 22 84 c36 132 86 225 168 306 110 110 232 160 420
172 302 18 548 -93 646 -292 52 -106 59 -167 59 -517 l0 -318 366 0 366 0 -5
318 c-3 174 -10 350 -17 391 -44 278 -149 501 -315 666 -168 169 -390 273
-690 326 -137 24 -488 34 -615 18z"/>
<path d="M5070 4590 l0 -2270 365 0 365 0 2 1877 3 1876 353 -1829 c195 -1006
358 -1850 364 -1877 l10 -47 358 0 359 0 10 52 c6 29 166 874 356 1878 190
1004 347 1830 349 1835 3 6 5 -839 5 -1877 l1 -1888 365 0 365 0 0 2270 0
2270 -642 -2 -642 -3 -256 -1655 c-142 -910 -260 -1677 -264 -1703 -4 -27 -9
-47 -11 -45 -2 1 -74 507 -160 1123 -111 800 -184 1285 -255 1699 -55 318
-100 580 -100 582 0 2 -292 4 -650 4 l-650 0 0 -2270z"/>
<path d="M9230 4595 l0 -2265 1020 0 1020 0 0 300 0 300 -655 0 -655 0 0 725
0 725 595 0 595 0 0 285 0 285 -595 0 -595 0 0 660 0 660 635 0 635 0 0 295 0
295 -1000 0 -1000 0 0 -2265z"/>
<path d="M11720 4596 l0 -2266 365 0 365 0 0 1061 0 1062 278 -6 c560 -12 748
-71 810 -252 15 -45 17 -134 20 -957 l3 -908 369 0 370 0 0 770 c0 771 -5 900
-36 1024 -56 219 -197 372 -464 504 l-135 67 109 27 c212 53 375 159 439 283
73 146 87 267 87 795 0 465 -4 510 -58 624 -97 206 -296 323 -652 385 -231 41
-290 43 -1087 48 l-783 4 0 -2265z m1275 1694 c475 -15 536 -45 556 -269 11
-125 11 -618 0 -743 -10 -112 -27 -149 -87 -191 -72 -50 -151 -59 -606 -64
l-408 -5 0 641 0 641 133 0 c72 -1 258 -5 412 -10z"/>
<path d="M18180 4590 l0 -2270 375 0 375 0 -2 2267 -3 2268 -372 3 -373 2 0
-2270z"/>
</g>
</svg>
